<svg xmlns="http://www.w3.org/2000/svg" viewBox="0.00 0.00 48.35 34.60" width="48" height="35"><g><path d="M48.10 1.85 L48.30 2.90 L48.35 4.15 L48.30 6.50 L48.20 8.05 L48.10 8.25 L47.80 8.50 L47.75 9.10 L47.75 9.35 L47.60 9.75 L47.20 9.60 L46.70 9.60 L44.80 9.60 L44.45 10.80 L44.10 11.35 L44.05 11.55 L32.80 11.55 L32.25 11.75 L31.35 12.20 L30.30 12.75 L29.70 13.10 L29.85 14.50 L29.85 15.65 L29.70 17.20 Q29.50 18.40 28.70 18.95 Q28.00 19.50 26.90 19.70 L24.65 19.80 L22.30 19.70 L20.70 19.60 L19.45 19.65 L19.35 19.65 Q17.70 19.45 17.25 19.65 L16.60 20.15 L16.40 20.25 Q16.00 20.65 16.00 22.15 L16.00 22.55 L15.85 23.90 L15.35 25.10 L15.30 25.40 L14.90 26.85 L14.35 29.00 L13.90 30.95 L13.60 31.90 L13.80 32.10 L14.10 32.45 L14.25 32.90 L14.15 33.05 Q14.10 33.50 13.65 33.75 L12.90 34.15 L12.75 34.15 L11.25 34.20 L8.25 34.35 L2.90 34.60 Q1.95 34.60 0.90 32.60 L0.85 32.60 L0.85 31.80 Q0.85 30.15 1.30 27.80 L2.35 23.20 L3.70 18.80 L4.90 15.35 L4.90 15.10 L5.00 14.40 L5.00 14.15 L4.95 14.05 L4.90 13.90 L4.80 13.90 L4.80 13.80 L4.40 13.35 L4.15 13.25 L3.50 13.05 Q2.75 12.80 1.45 11.95 Q0.60 11.45 0.35 10.85 Q0.00 10.15 0.00 9.55 L0.05 8.70 L0.55 6.95 L1.30 3.70 Q1.65 2.35 2.30 1.85 L3.35 1.05 L3.35 0.25 L3.55 0.15 L6.45 0.40 Q7.85 1.05 8.10 1.30 L32.15 1.30 L32.35 1.40 L32.55 1.60 L45.20 1.60 L45.35 1.45 L46.05 0.35 L46.05 0.15 L46.20 0.15 L46.45 0.10 L47.00 0.15 Q47.60 0.25 48.10 1.85" fill="#ffffff" stroke="none" stroke-width="1" fill-rule="evenodd"/><path d="M27.20 12.70 L18.40 12.70 Q17.70 12.70 17.70 13.45 L17.70 16.60 Q17.70 17.30 18.40 17.30 L27.20 17.30 Q27.85 17.30 27.85 16.60 L27.85 13.45 Q27.85 12.70 27.20 12.70" fill="#ffffff" stroke="none" stroke-width="1" fill-rule="evenodd"/></g></svg>