<svg xmlns="http://www.w3.org/2000/svg" viewBox="4.00 0.65 57.25 31.10" width="57" height="31"><g><path d="M61.25 6.05 L60.65 7.50 L60.65 10.20 L57.85 10.20 L57.85 9.85 L57.20 9.85 L57.20 10.25 L52.95 10.25 L52.95 9.80 L48.65 9.75 L47.90 10.05 L41.45 10.05 L40.75 10.15 Q40.00 10.30 39.60 10.60 L39.55 10.65 L38.85 11.25 Q38.50 11.70 38.45 12.25 L38.40 13.95 L38.40 15.00 L36.95 14.95 L36.90 14.95 L35.65 14.95 L34.80 15.05 Q34.15 15.20 33.85 15.45 L33.45 16.00 L33.30 16.20 Q33.10 16.60 33.00 17.30 L32.75 18.30 L32.05 19.40 Q31.25 20.20 30.05 20.65 L29.85 20.75 L27.45 21.30 L25.45 21.35 L25.00 21.25 L24.05 20.70 L23.65 20.30 L23.45 20.10 L23.15 20.40 L22.65 20.30 L22.00 20.20 L21.45 20.15 L20.40 20.00 L19.05 20.05 Q18.40 20.35 18.00 20.75 Q17.55 21.20 17.50 21.75 Q17.45 22.50 17.90 23.10 L18.20 23.55 L18.25 23.90 L18.05 24.20 L17.65 24.50 Q17.10 25.00 17.05 25.60 Q16.90 26.40 17.35 27.05 L17.60 27.50 L17.65 27.90 L17.45 28.20 L16.95 28.45 L16.00 29.15 L15.60 30.05 L15.20 30.80 L12.85 31.50 L9.50 31.75 L6.20 31.35 Q4.25 30.85 4.05 29.95 Q3.95 29.60 4.25 29.00 L4.40 28.75 L4.80 27.95 L5.25 27.00 L5.75 25.60 L6.45 23.70 Q7.35 21.20 8.00 19.95 L10.30 16.25 L12.45 12.95 L12.95 11.85 L12.95 10.85 L12.95 10.00 L13.15 9.15 Q13.45 8.65 14.75 8.40 L15.70 8.25 L16.05 8.25 L16.50 7.85 Q17.05 7.45 17.50 7.30 L18.45 6.95 L18.95 6.85 L18.65 6.10 L17.80 5.10 L16.55 4.75 L16.30 4.70 L15.40 4.65 L15.35 4.40 L16.30 4.35 L17.85 4.35 L18.85 4.90 L18.95 4.95 Q19.40 5.30 19.60 5.30 Q19.85 5.30 20.40 4.55 L20.90 3.90 L22.05 3.95 L22.50 2.90 L22.40 2.85 L22.25 2.70 Q22.00 2.40 22.15 2.00 L22.45 1.65 L22.55 1.60 L22.75 1.60 L22.85 1.10 L23.45 1.20 L23.40 1.65 L25.15 1.65 L25.70 2.00 L28.40 2.00 L28.40 1.30 L29.10 0.65 L30.10 0.70 L30.10 1.20 L31.00 1.20 L31.00 0.70 L32.05 0.70 L32.05 1.20 L32.95 1.20 L32.95 0.65 L34.00 0.65 L34.00 1.20 L34.95 1.20 L34.95 0.65 L35.85 0.65 L35.85 1.20 L36.90 1.20 L36.90 0.70 L37.80 0.70 L37.80 1.20 L38.80 1.20 L38.80 0.65 L39.75 0.65 L39.75 1.20 L40.75 1.20 L40.75 0.65 L41.75 0.65 L41.75 1.20 L42.70 1.20 L42.70 0.65 L43.60 0.65 L43.60 1.20 L44.60 1.20 L44.60 0.70 L45.50 0.70 L45.50 1.15 L46.50 1.15 L46.50 0.70 L47.20 0.70 L47.70 0.85 L48.65 1.20 L50.45 2.10 L56.30 2.10 L56.30 1.20 L59.15 1.20 L59.35 1.25 L59.75 1.50 L59.90 1.95 L59.85 2.20 L61.25 3.35 L61.25 6.05" fill="#ffffff" stroke="none" stroke-width="1" fill-rule="evenodd"/><path d="M29.20 14.20" fill="#ffffff" stroke="none" stroke-width="1" fill-rule="evenodd"/><path d="M29.20 14.20 L30.70 14.45 L31.80 15.20 Q32.40 15.65 32.45 16.25 L32.45 16.30 L32.45 17.55 L32.15 18.50 L31.15 19.50 L30.45 19.95 L29.95 20.20 L29.55 20.35 L28.45 20.60 L26.40 20.75 L24.85 20.45 L24.00 19.85 L23.50 18.75 Q23.30 18.15 23.25 17.45 L23.25 17.25 Q23.25 16.55 23.80 15.80 L24.15 15.30 L24.35 15.15 L24.55 15.40 L25.10 15.80 L26.00 15.95 L26.45 16.00 L26.40 16.60 L26.15 16.80 L26.35 17.60 Q26.60 18.40 27.00 18.85 L28.55 19.85 L29.40 20.15 L29.55 19.85 L29.00 19.55 L27.95 18.75 L27.35 17.85 L27.35 16.85 L27.85 16.15 L27.95 16.10 L28.30 15.55 L28.70 14.75 L28.40 14.50 L28.35 14.20 L29.20 14.20" fill="#ffffff" stroke="none" stroke-width="1" fill-rule="evenodd"/></g></svg>