<svg xmlns="http://www.w3.org/2000/svg" viewBox="0.50 1.20 129.60 34.50" width="130" height="34"><g><path d="M130.10 16.20 L130.10 16.35 L130.10 16.40 L130.10 16.55 L130.10 16.65 L130.10 16.75 L130.10 16.90 L130.10 16.95 L130.10 17.10 L130.10 17.20 L130.10 17.30 L130.10 17.40 L130.10 17.50 L130.10 17.70 L129.80 17.70 L125.05 17.70 L125.05 17.85 L124.45 17.85 L124.45 17.70 L117.75 17.70 L117.75 17.80 L117.75 17.95 L117.75 18.10 L117.75 18.15 L117.50 18.15 L117.50 18.05 L117.30 18.05 L117.30 18.00 L117.30 17.90 L117.30 17.85 L117.30 17.70 L116.60 17.70 L116.60 17.85 L116.35 17.85 L116.35 17.70 L115.65 17.70 L115.65 17.80 L115.65 17.95 L115.65 18.15 L115.40 18.15 L115.20 18.15 L115.20 18.20 L114.95 18.20 L114.95 18.15 L114.95 17.95 L114.95 17.80 L114.95 17.60 L114.95 17.50 L103.10 17.50 L103.05 17.45 L103.00 17.40 L102.90 17.40 L102.75 17.40 L102.75 17.75 L102.30 17.75 L84.30 17.70 L84.30 18.25 L84.20 18.30 L84.20 19.10 L84.35 19.10 L84.35 19.55 L84.20 19.55 L84.15 19.60 L84.10 19.60 L84.05 19.65 L84.05 19.60 L84.10 19.55 L83.50 19.55 L83.50 19.65 L83.00 19.65 L83.00 19.20 L82.05 19.20 L82.05 19.60 L81.60 19.60 L81.60 19.20 L80.95 19.20 L80.95 19.55 L80.45 19.55 L80.45 19.20 L79.70 19.20 L79.70 19.55 L79.20 19.55 L79.20 19.20 L78.55 19.20 L78.55 19.55 L78.05 19.55 L78.05 19.20 L77.30 19.20 L77.30 19.55 L76.85 19.55 L76.85 19.20 L76.65 19.20 L76.25 19.20 L76.25 19.65 L75.80 19.65 L75.80 19.20 L75.05 19.20 L75.05 19.55 L74.60 19.55 L74.60 19.20 L73.95 19.20 L73.95 19.55 L73.40 19.55 L73.40 19.20 L72.70 19.20 L72.70 19.55 L72.15 19.55 L72.15 19.20 L71.45 19.20 L71.45 19.50 L71.00 19.50 L71.00 19.20 L70.30 19.20 L70.30 19.55 L69.85 19.55 L69.85 19.20 L69.20 19.20 L69.20 19.55 L68.75 19.55 L68.75 19.20 L68.00 19.20 L68.00 19.50 L67.45 19.50 L67.45 19.20 L66.80 19.20 L66.80 19.55 L66.35 19.55 L66.35 19.20 L65.50 19.20 L65.50 19.55 L63.95 19.55 L63.95 19.20 L63.40 19.20 L63.40 19.35 L63.35 19.40 L63.35 19.45 L63.30 19.50 L63.30 19.60 L63.25 19.65 L63.20 19.70 L63.15 19.70 L62.75 19.70 L62.45 19.75 L62.30 19.80 L62.25 19.85 L62.10 19.90 L62.05 19.95 L62.00 19.95 L61.70 20.00 L61.50 20.05 L61.45 20.10 L61.45 20.15 L61.35 20.20 L61.25 20.25 L61.20 20.30 L61.10 20.40 L61.05 20.40 L61.00 20.45 L61.00 20.55 L60.95 20.60 L60.90 20.60 L60.90 20.65 L60.90 20.75 L60.90 20.80 L60.90 20.90 L60.90 21.60 L60.90 21.70 L60.90 21.90 L60.90 22.05 L60.90 22.25 L60.90 22.45 L60.90 22.60 L60.90 22.80 L60.90 23.00 L60.90 23.10 L60.90 23.15 L61.05 23.30 L61.10 23.30 L61.20 23.35 L61.25 23.40 L61.30 23.45 L61.35 23.50 L61.35 24.45 L61.30 24.45 L61.25 24.50 L61.25 24.55 L61.20 24.55 L60.85 24.55 L60.85 24.70 L60.65 24.70 L60.55 24.70 L60.55 24.75 L60.55 25.05 L60.55 25.35 L60.55 25.60 L60.55 25.90 L60.55 26.20 L60.55 26.50 L60.55 26.80 L60.55 27.10 L60.55 27.35 L60.55 27.70 L60.55 27.95 L60.55 28.25 L60.55 28.55 L60.55 28.85 L60.55 29.15 L60.55 29.40 L60.55 29.70 L60.55 30.00 L60.55 30.30 L60.55 30.60 L60.55 30.90 L60.55 31.15 L60.55 31.50 L60.55 31.75 L60.55 32.05 L60.55 32.35 L60.55 32.60 L60.55 32.95 L60.55 33.20 L60.55 33.50 L60.55 33.80 L60.55 34.10 L60.55 34.35 L60.55 34.55 L60.55 34.70 L60.55 34.95 L60.55 35.15 L60.55 35.30 L60.55 35.40 L60.65 35.40 L60.65 35.70 L51.95 35.70 L51.75 35.70 L51.60 35.70 L51.60 35.60 L51.60 35.50 L51.60 35.40 L51.60 35.30 L51.60 35.20 L51.60 35.15 L51.60 35.05 L51.60 35.00 L51.60 34.90 L51.55 34.90 L51.55 34.85 L51.15 34.85 L51.15 34.25 L51.25 34.20 L51.25 33.90 L51.25 33.60 L51.25 33.30 L51.25 33.00 L51.25 32.70 L51.25 32.45 L51.25 32.10 L51.25 31.85 L51.25 31.55 L51.25 31.25 L51.25 31.00 L51.25 30.65 L51.25 30.40 L51.25 30.10 L51.25 29.80 L51.25 29.50 L51.25 29.20 L51.25 28.90 L51.25 28.65 L51.25 28.30 L51.25 28.05 L51.25 27.75 L51.25 27.45 L51.25 27.20 L51.25 26.85 L51.25 26.60 L51.25 26.35 L51.05 26.35 L50.70 26.35 L50.65 26.35 L50.55 26.40 L50.50 26.45 L50.45 26.45 L50.30 26.50 L50.10 26.55 L50.10 26.75 L43.70 26.80 L43.20 26.80 L43.20 27.05 L43.10 27.15 L43.10 27.20 L43.05 27.25 L43.05 27.30 L43.00 27.30 L42.95 27.35 L42.95 27.45 L42.90 27.45 L42.85 27.50 L42.85 27.60 L42.80 27.65 L42.80 27.75 L42.75 27.75 L42.65 27.85 L42.65 27.90 L42.60 27.95 L42.60 28.00 L42.55 28.00 L42.55 28.10 L42.50 28.10 L42.50 28.15 L42.45 28.20 L42.45 28.25 L42.35 28.25 L42.35 28.35 L42.40 28.35 L42.40 28.50 L42.45 28.55 L42.45 28.60 L42.50 28.65 L42.50 28.70 L42.55 28.70 L42.55 28.75 L42.60 28.80 L42.60 29.40 L42.50 29.45 L41.75 29.45 L41.70 29.50 L41.70 29.60 L41.65 29.65 L41.65 29.70 L41.60 29.75 L41.55 29.80 L41.55 29.85 L41.50 29.85 L41.50 29.90 L41.45 29.95 L41.45 30.00 L41.40 30.05 L41.40 30.10 L41.35 30.10 L41.35 30.15 L41.30 30.15 L41.30 30.25 L41.25 30.30 L41.25 30.35 L41.20 30.35 L41.20 30.40 L41.15 30.45 L41.15 30.50 L41.10 30.50 L41.10 30.55 L41.05 30.60 L41.00 30.65 L41.00 30.75 L40.95 30.75 L40.95 31.00 L40.90 31.05 L40.85 31.10 L40.85 31.15 L40.75 31.20 L40.75 31.30 L40.70 31.30 L40.70 31.40 L40.65 31.45 L40.65 31.50 L40.60 31.55 L40.60 31.60 L40.55 31.65 L40.55 31.70 L40.50 31.75 L40.45 31.80 L40.45 31.95 L40.40 32.00 L40.35 32.05 L40.30 32.10 L40.30 32.15 L40.25 32.20 L40.25 32.25 L40.20 32.25 L40.20 32.30 L40.10 32.35 L40.10 32.40 L40.05 32.45 L40.00 32.50 L40.00 32.55 L39.95 32.60 L39.95 32.65 L39.90 32.70 L39.90 32.85 L39.85 32.90 L39.85 32.95 L39.80 32.95 L39.85 33.00 L39.85 33.05 L39.90 33.10 L39.90 33.15 L39.95 33.15 L39.95 33.80 L39.90 33.85 L39.85 33.90 L39.85 33.95 L39.80 33.95 L39.80 34.05 L39.75 34.10 L39.75 34.20 L39.70 34.25 L39.60 34.25 L39.60 34.30 L38.85 34.30 L38.70 34.25 L38.60 34.20 L38.50 34.15 L38.35 34.10 L38.10 34.05 L38.10 34.00 L37.80 33.95 L37.55 33.90 L37.35 33.90 L37.20 33.85 L36.90 33.80 L36.75 33.75 L36.60 33.70 L36.45 33.65 L36.25 33.60 L36.15 33.55 L35.90 33.50 L35.70 33.45 L35.55 33.45 L35.55 33.40 L35.35 33.35 L35.20 33.30 L35.00 33.25 L34.80 33.20 L34.65 33.15 L34.45 33.10 L34.25 33.05 L34.15 33.00 L34.00 32.95 L33.80 32.95 L33.55 32.90 L33.50 32.85 L33.50 32.25 L33.55 32.25 L33.55 32.05 L33.60 32.00 L33.65 32.00 L33.70 31.95 L33.70 31.90 L33.75 31.85 L33.75 31.80 L33.85 31.75 L33.85 31.60 L33.90 31.60 L33.90 31.55 L34.00 31.55 L34.00 31.45 L34.05 31.45 L34.05 31.40 L34.15 31.35 L34.15 31.25 L34.20 31.25 L34.25 31.20 L34.25 31.15 L34.30 31.15 L34.30 31.05 L34.35 31.05 L34.35 30.95 L34.40 30.90 L34.40 30.85 L34.45 30.85 L34.45 30.80 L34.55 30.75 L34.55 30.65 L34.60 30.65 L34.65 30.60 L34.70 30.55 L34.70 30.50 L34.75 30.45 L34.80 30.40 L34.80 30.20 L34.85 30.15 L34.85 30.10 L34.95 30.10 L34.95 30.00 L35.05 29.90 L35.05 29.80 L35.10 29.75 L35.15 29.70 L35.20 29.70 L35.25 29.65 L35.25 29.50 L35.35 29.40 L35.35 29.35 L35.45 29.25 L35.50 29.20 L35.50 29.15 L35.60 29.15 L35.60 29.05 L35.65 29.00 L35.65 28.90 L35.70 28.85 L35.70 28.75 L35.75 28.75 L35.75 28.70 L35.80 28.70 L35.90 28.65 L35.90 28.55 L35.95 28.50 L35.95 28.40 L36.00 28.40 L36.00 28.35 L36.05 28.30 L36.05 28.25 L36.10 28.25 L36.15 28.20 L36.15 28.10 L36.20 28.10 L36.20 27.90 L36.25 27.90 L36.30 27.85 L36.30 27.75 L36.40 27.75 L36.45 27.75 L36.45 27.60 L36.50 27.60 L36.55 27.55 L36.55 27.40 L36.60 27.40 L36.60 27.35 L36.65 27.30 L36.70 27.30 L36.70 27.20 L36.75 27.15 L36.75 27.00 L36.80 26.95 L36.85 26.90 L36.85 26.80 L36.95 26.80 L36.95 26.70 L37.05 26.70 L37.10 26.65 L37.10 26.60 L37.15 26.55 L37.15 26.40 L37.20 26.35 L37.25 26.35 L37.35 26.25 L37.35 26.15 L37.45 26.15 L37.50 26.10 L37.50 26.00 L37.55 26.00 L37.55 25.95 L37.60 25.90 L37.60 25.85 L37.65 25.85 L37.70 25.80 L37.70 25.75 L37.75 25.70 L37.80 25.65 L37.80 25.55 L37.85 25.55 L37.85 25.50 L37.90 25.45 L37.95 25.40 L38.00 25.40 L38.00 25.35 L38.05 25.30 L38.05 25.20 L38.10 25.20 L38.10 25.00 L38.15 25.00 L38.15 24.95 L38.20 24.90 L38.25 24.85 L38.30 24.85 L38.40 24.75 L38.40 24.70 L38.45 24.65 L38.45 24.60 L38.50 24.60 L38.50 24.50 L38.55 24.45 L38.60 24.40 L38.60 24.35 L38.65 24.30 L38.65 24.25 L38.70 24.25 L38.75 24.20 L38.80 24.15 L38.85 24.10 L38.85 24.05 L38.95 24.00 L38.95 23.95 L39.05 23.95 L39.05 23.80 L39.10 23.80 L39.10 23.65 L39.15 23.60 L39.15 23.50 L39.20 23.50 L39.25 23.45 L39.25 23.05 L39.30 23.05 L39.30 22.85 L39.25 22.80 L39.25 22.60 L39.15 22.55 L39.15 22.50 L39.10 22.45 L39.10 22.40 L39.05 22.35 L39.00 22.30 L39.00 22.25 L38.95 22.20 L38.90 22.20 L38.75 22.10 L38.75 22.05 L38.70 22.05 L38.60 22.00 L38.55 21.95 L38.55 21.85 L38.40 21.80 L38.35 21.75 L38.30 21.70 L38.20 21.65 L38.15 21.60 L38.10 21.60 L38.10 21.55 L38.05 21.50 L38.00 21.45 L37.90 21.40 L33.15 21.35 L33.15 21.30 L33.10 21.25 L33.10 21.20 L33.05 21.15 L32.85 20.95 L32.75 20.90 L32.70 20.90 L32.60 20.90 L32.55 20.85 L32.40 20.85 L32.40 20.90 L32.30 20.90 L32.20 20.90 L30.90 20.90 L30.90 20.80 L27.80 20.85 L27.70 20.90 L26.95 20.90 L26.90 20.90 L26.80 21.00 L26.75 21.05 L26.70 21.10 L26.65 21.10 L26.60 21.15 L26.55 21.15 L26.55 21.20 L26.50 21.25 L26.45 21.30 L26.40 21.35 L26.40 21.40 L26.35 21.45 L26.30 21.50 L26.30 21.60 L26.20 21.60 L26.15 21.65 L26.10 21.65 L26.10 21.70 L26.05 21.75 L26.00 21.80 L25.95 21.85 L25.90 21.85 L25.80 21.90 L25.80 21.95 L25.75 22.00 L25.70 22.00 L25.70 22.05 L25.60 22.10 L25.50 22.10 L25.45 22.15 L25.40 22.15 L25.40 22.25 L25.35 22.30 L25.35 22.35 L25.30 22.40 L25.30 22.45 L25.25 22.50 L25.20 22.55 L25.15 22.55 L25.10 22.60 L25.10 22.65 L25.05 22.70 L25.00 22.70 L25.00 22.80 L24.95 22.85 L24.85 22.95 L24.85 23.00 L24.80 23.05 L24.75 23.05 L24.70 23.10 L24.65 23.10 L24.60 23.15 L24.60 23.20 L24.55 23.25 L24.50 23.30 L24.45 23.30 L24.45 23.35 L24.40 23.40 L24.40 23.45 L24.35 23.50 L24.25 23.50 L24.25 23.55 L24.20 23.60 L24.20 23.65 L24.15 23.65 L24.15 23.70 L24.10 23.70 L24.05 23.75 L23.95 23.80 L23.90 23.80 L23.90 23.85 L23.85 23.90 L23.85 23.95 L23.80 23.95 L23.80 24.00 L23.75 24.05 L23.75 24.10 L23.70 24.15 L23.75 24.25 L23.75 24.30 L23.70 24.40 L23.75 24.45 L23.75 24.55 L23.75 24.65 L23.75 24.75 L23.75 24.85 L23.75 24.95 L23.75 25.05 L23.75 25.15 L23.75 25.25 L23.75 25.35 L23.75 25.40 L23.75 25.50 L23.75 25.60 L23.75 25.65 L23.65 25.75 L23.65 25.85 L23.55 25.85 L23.55 25.95 L23.45 26.05 L23.35 26.10 L23.30 26.15 L23.15 26.20 L23.05 26.20 L22.95 26.15 L22.90 26.10 L14.00 26.10 L10.85 26.10 L8.05 26.10 L8.05 26.05 L7.95 26.05 L7.95 25.95 L7.90 25.95 L7.85 25.90 L7.85 25.70 L7.70 25.70 L7.70 25.65 L7.70 25.40 L7.70 25.35 L7.40 25.30 L7.40 25.20 L7.40 25.15 L7.40 25.05 L7.40 25.00 L7.40 24.90 L4.55 24.90 L4.55 25.10 L4.55 25.40 L4.55 25.70 L4.55 25.95 L4.55 26.30 L4.55 26.55 L4.55 26.85 L4.55 27.15 L4.55 27.45 L4.55 27.75 L4.55 28.00 L4.55 28.10 L4.55 28.65 L4.05 28.65 L4.05 28.60 L2.65 28.55 L2.65 28.90 L2.55 28.95 L2.55 29.45 L2.50 29.45 L2.40 29.45 L1.75 29.45 L1.80 29.50 L1.85 29.55 L1.80 29.55 L1.65 29.55 L1.60 29.60 L1.50 29.60 L1.20 29.60 L0.75 29.60 L0.75 29.55 L0.75 29.40 L0.75 29.25 L0.75 29.15 L0.75 28.95 L0.75 28.80 L0.75 28.70 L0.75 28.55 L0.75 28.40 L0.75 28.25 L0.75 28.10 L0.75 27.95 L0.75 27.80 L0.75 27.65 L0.75 27.50 L0.75 27.35 L0.75 27.25 L0.75 27.05 L0.75 26.90 L1.00 26.90 L1.00 26.50 L1.05 26.45 L1.05 26.40 L1.05 26.10 L1.05 25.85 L1.05 25.55 L1.05 25.25 L1.05 24.95 L1.05 24.65 L1.05 24.40 L1.05 24.05 L1.05 23.80 L1.05 23.50 L1.05 23.20 L1.05 22.90 L1.05 22.60 L1.05 22.35 L1.05 22.05 L1.05 21.75 L1.05 21.45 L1.05 21.15 L1.05 20.85 L1.05 20.60 L1.05 20.25 L1.05 20.00 L1.05 19.70 L1.05 19.40 L1.05 19.15 L1.05 18.80 L1.05 18.55 L1.05 18.25 L1.05 17.95 L1.05 17.65 L1.05 17.35 L1.00 17.35 L1.00 17.30 L0.95 17.25 L0.90 17.15 L0.90 17.05 L0.90 16.95 L0.90 16.90 L0.90 16.80 L0.90 16.70 L0.90 16.60 L0.90 16.55 L0.90 16.45 L0.90 16.40 L0.90 16.30 L0.90 16.20 L0.90 16.10 L0.90 16.00 L0.90 15.90 L0.90 15.80 L0.90 15.70 L0.90 15.60 L0.90 15.50 L0.90 15.45 L0.90 15.35 L0.90 15.25 L0.90 15.15 L0.80 15.15 L0.75 15.10 L0.75 14.85 L0.75 14.75 L0.75 14.40 L0.50 14.40 L0.50 13.95 L1.60 13.95 L1.60 14.00 L2.65 14.00 L2.65 14.45 L2.50 14.45 L2.55 14.50 L4.40 14.50 L4.40 14.85 L4.55 14.85 L4.55 14.90 L4.55 15.15 L4.55 15.45 L4.55 15.75 L4.55 16.05 L4.55 16.35 L4.55 16.65 L4.55 16.90 L4.55 17.25 L4.55 17.50 L4.55 17.80 L4.55 18.10 L4.55 18.35 L4.55 18.70 L4.55 18.95 L7.70 18.95 L7.70 18.65 L7.70 18.35 L7.70 18.05 L7.70 17.85 L7.85 17.85 L8.15 17.85 L12.60 17.85 L12.60 17.65 L12.60 17.45 L12.60 17.30 L12.60 17.10 L12.60 16.90 L12.60 16.75 L12.60 16.55 L12.60 16.50 L8.80 16.50 L8.80 16.40 L8.30 16.40 L8.30 15.80 L8.25 15.75 L8.25 15.35 L8.20 15.35 L8.20 15.30 L8.20 15.05 L8.20 14.90 L8.20 14.65 L8.20 14.45 L8.20 14.20 L8.20 14.00 L8.20 13.75 L8.20 13.60 L8.20 13.35 L8.20 13.10 L8.20 12.90 L8.20 12.65 L8.20 12.45 L8.20 12.25 L8.20 12.05 L8.20 11.80 L8.20 11.60 L8.20 11.35 L8.15 11.30 L8.15 10.85 L8.20 10.80 L8.20 10.60 L8.40 10.60 L8.40 10.40 L8.60 10.35 L8.60 10.25 L8.90 10.20 L8.95 10.15 L9.45 10.15 L22.10 10.15 L22.45 10.15 L24.25 10.10 L24.30 10.10 L24.30 10.05 L25.35 10.10 L26.20 10.15 L26.50 10.15 L28.00 10.15 L28.00 10.20 L28.40 10.20 L28.45 10.25 L28.50 10.25 L28.55 10.30 L28.60 10.35 L28.60 11.00 L28.55 11.05 L28.50 11.05 L28.50 11.15 L28.45 11.20 L28.45 11.30 L28.40 11.35 L28.35 11.40 L28.30 11.45 L28.25 11.50 L28.15 11.60 L28.15 11.65 L28.05 11.75 L28.05 11.80 L27.85 12.00 L27.80 12.00 L27.80 12.10 L27.70 12.15 L27.70 12.20 L27.60 12.35 L27.55 12.35 L27.55 12.40 L27.45 12.50 L27.45 12.55 L27.30 12.65 L27.30 12.70 L27.25 12.75 L27.25 12.80 L27.20 12.85 L27.20 12.95 L27.10 12.95 L27.05 13.00 L27.00 13.05 L26.95 13.10 L26.85 13.10 L26.85 13.20 L26.80 13.25 L26.80 13.30 L26.75 13.30 L26.75 13.45 L26.70 13.50 L26.60 13.60 L26.55 13.60 L26.55 13.65 L26.50 13.70 L26.45 13.75 L26.40 13.80 L26.40 13.85 L26.35 13.90 L26.25 14.05 L26.20 14.05 L26.20 14.10 L26.10 14.20 L26.10 14.25 L26.05 14.25 L26.05 14.35 L26.00 14.40 L26.00 14.45 L25.95 14.45 L25.90 14.50 L25.85 14.50 L25.80 14.55 L25.75 14.60 L25.75 14.65 L25.70 14.65 L25.65 14.70 L25.65 14.75 L25.60 14.75 L25.55 14.80 L25.45 14.90 L25.40 14.90 L25.40 14.95 L25.35 15.00 L25.35 15.05 L25.30 15.05 L25.30 15.10 L25.25 15.15 L25.25 15.20 L25.15 15.30 L25.10 15.30 L25.00 15.40 L24.95 15.45 L24.85 15.45 L24.70 15.65 L24.65 15.65 L24.65 15.70 L24.60 15.75 L24.60 15.80 L24.45 15.80 L24.40 15.85 L24.35 15.90 L24.30 15.95 L24.20 15.95 L24.15 16.00 L24.05 16.05 L24.00 16.10 L24.00 16.15 L23.90 16.15 L23.85 16.20 L23.75 16.30 L23.70 16.30 L23.70 16.35 L23.60 16.40 L23.55 16.40 L23.40 16.40 L23.40 16.45 L23.25 16.45 L17.95 16.45 L17.95 16.60 L17.90 16.65 L17.90 16.80 L17.75 16.90 L17.75 17.00 L17.75 17.10 L17.75 17.15 L17.75 17.25 L17.75 17.35 L17.75 17.45 L17.75 17.50 L17.75 17.60 L17.75 17.70 L17.75 17.75 L17.75 17.85 L21.45 17.85 L23.90 17.85 L23.95 17.85 L24.00 17.80 L24.00 17.75 L24.05 17.70 L24.10 17.70 L24.20 17.65 L24.25 17.60 L24.30 17.60 L24.35 17.55 L24.35 17.50 L24.40 17.45 L24.45 17.40 L24.50 17.40 L24.55 17.35 L24.60 17.35 L24.70 17.25 L24.75 17.25 L24.80 17.20 L24.80 17.10 L24.85 17.05 L24.85 17.00 L24.90 16.95 L24.90 16.90 L24.95 16.90 L25.00 16.85 L25.05 16.80 L25.05 16.70 L25.10 16.65 L25.15 16.65 L25.25 16.60 L25.25 16.55 L25.35 16.50 L25.35 16.45 L25.40 16.40 L25.40 16.35 L25.45 16.30 L25.50 16.30 L25.55 16.25 L25.55 16.15 L25.60 16.10 L25.65 16.10 L25.65 16.00 L25.70 15.95 L25.75 15.95 L25.80 15.90 L25.80 15.85 L25.85 15.80 L25.85 15.70 L25.90 15.70 L25.95 15.65 L26.05 15.60 L26.05 15.55 L26.10 15.50 L26.15 15.50 L26.20 15.45 L26.25 15.45 L26.30 15.40 L26.35 15.35 L26.35 15.30 L26.40 15.30 L26.45 15.25 L26.45 15.15 L26.50 15.10 L26.55 15.05 L26.60 15.00 L26.70 15.00 L26.70 14.95 L26.75 14.90 L26.75 14.80 L26.80 14.75 L26.85 14.70 L26.85 14.55 L26.90 14.55 L26.95 14.50 L27.00 14.45 L27.00 14.40 L27.05 14.35 L27.10 14.35 L27.10 14.30 L27.15 14.25 L27.15 14.20 L27.20 14.15 L27.25 14.10 L27.30 14.10 L27.30 14.05 L27.35 14.05 L27.40 14.00 L27.50 13.90 L27.50 13.85 L27.55 13.80 L27.60 13.75 L27.65 13.75 L27.70 13.70 L27.70 13.60 L27.75 13.60 L27.80 13.55 L27.85 13.50 L27.90 13.45 L27.95 13.40 L28.00 13.40 L28.05 13.35 L28.05 13.25 L28.10 13.20 L28.15 13.15 L28.15 13.10 L28.20 13.05 L28.25 13.00 L28.30 13.00 L28.40 12.95 L28.40 12.90 L28.45 12.85 L28.45 12.80 L28.50 12.80 L28.55 12.75 L28.60 12.70 L28.60 12.65 L28.65 12.65 L28.65 12.50 L28.70 12.45 L28.75 12.45 L29.00 12.45 L29.00 12.40 L29.90 12.40 L29.95 12.40 L30.40 12.40 L30.55 12.40 L30.75 12.40 L31.00 12.40 L31.05 12.40 L32.15 12.40 L32.55 12.40 L32.55 12.35 L32.60 12.35 L32.60 12.30 L32.65 12.25 L32.65 12.20 L32.70 12.15 L32.80 12.15 L32.80 12.10 L32.85 12.00 L32.90 11.90 L32.90 11.80 L32.90 11.70 L32.90 11.60 L32.90 11.50 L32.90 11.40 L32.90 11.30 L33.00 11.20 L33.10 11.20 L33.15 11.20 L33.15 10.95 L33.20 10.90 L33.35 10.85 L35.65 10.85 L35.65 10.25 L33.90 10.25 L33.55 10.25 L33.45 10.25 L33.45 9.30 L33.75 9.30 L36.55 9.30 L36.60 9.25 L36.65 9.20 L36.70 9.15 L36.70 9.10 L36.75 9.10 L36.90 9.05 L36.95 9.00 L37.00 9.00 L37.05 8.95 L37.10 8.95 L37.80 8.95 L37.90 9.00 L37.95 9.00 L38.05 9.05 L38.05 9.10 L38.10 9.10 L38.15 9.20 L38.20 9.25 L38.20 9.70 L41.45 9.70 L41.45 9.80 L41.55 9.80 L41.55 9.90 L41.55 10.00 L41.55 10.05 L41.55 10.15 L41.55 10.25 L41.55 10.35 L41.55 10.45 L41.55 10.50 L41.55 10.60 L41.55 10.65 L41.55 10.75 L41.55 10.80 L46.20 10.80 L46.20 10.60 L46.20 10.30 L46.20 10.00 L46.20 9.75 L46.20 9.40 L46.20 9.15 L46.20 8.85 L46.20 8.55 L46.20 8.30 L46.20 7.95 L46.20 7.70 L46.20 7.40 L46.20 7.10 L45.20 7.10 L45.15 7.15 L45.10 7.20 L45.05 7.20 L44.85 7.25 L44.80 7.25 L44.75 7.30 L44.70 7.35 L44.70 7.40 L44.65 7.40 L44.65 7.45 L44.60 7.50 L44.50 7.55 L44.45 7.60 L44.40 7.65 L44.25 7.65 L44.20 7.70 L44.00 7.70 L35.30 7.65 L35.30 7.70 L34.95 7.65 L34.85 7.65 L34.85 7.45 L34.85 7.15 L34.85 6.95 L34.85 6.90 L34.85 6.60 L34.85 6.35 L34.85 6.10 L34.85 5.85 L34.85 5.55 L34.85 5.35 L34.85 5.05 L34.85 4.80 L34.85 4.60 L34.85 4.30 L34.85 4.05 L34.85 3.80 L34.85 3.55 L34.85 3.30 L35.45 3.30 L35.50 3.35 L44.30 3.40 L44.30 3.50 L44.55 3.50 L44.55 3.55 L44.65 3.55 L44.70 3.60 L44.85 3.65 L44.95 3.70 L45.00 3.70 L45.20 3.75 L45.20 3.85 L45.30 3.85 L45.35 3.90 L45.40 3.95 L45.45 4.00 L45.50 4.00 L46.20 4.00 L46.20 3.90 L46.20 3.60 L46.20 3.30 L46.20 3.00 L46.55 3.00 L46.65 3.00 L49.85 3.00 L49.85 3.50 L49.80 3.50 L49.80 3.75 L49.80 3.95 L52.40 3.95 L52.40 3.50 L52.50 3.50 L52.50 3.35 L53.20 3.35 L53.20 3.30 L53.10 3.25 L53.10 2.60 L53.15 2.55 L53.15 2.50 L53.20 2.45 L53.20 2.25 L53.60 2.30 L53.60 2.25 L53.60 2.10 L53.60 2.00 L53.60 1.85 L53.60 1.75 L53.60 1.65 L53.65 1.60 L53.65 1.20 L55.65 1.20 L55.65 1.45 L55.90 1.45 L55.90 2.15 L55.85 2.20 L55.85 2.30 L55.85 2.40 L55.85 2.45 L56.15 2.45 L56.15 3.35 L56.90 3.35 L56.90 3.65 L56.95 3.65 L56.95 3.70 L57.00 3.70 L57.00 3.75 L57.05 3.80 L57.05 3.85 L57.10 3.90 L57.10 3.95 L58.90 3.95 L58.90 3.65 L58.90 3.50 L58.85 3.50 L58.85 3.05 L61.95 3.05 L62.45 3.05 L62.45 3.35 L62.45 3.55 L62.45 3.65 L62.45 3.90 L65.25 3.90 L65.30 3.90 L65.35 3.85 L65.50 3.80 L65.50 3.75 L65.60 3.70 L65.65 3.65 L65.80 3.65 L65.95 3.65 L66.10 3.60 L66.30 3.55 L66.40 3.55 L66.50 3.50 L66.55 3.50 L66.60 3.45 L66.70 3.45 L66.80 3.40 L66.85 3.35 L67.10 3.35 L67.25 3.30 L67.40 3.25 L67.45 3.25 L67.50 3.20 L67.75 3.20 L67.75 3.15 L67.80 3.15 L67.90 3.10 L67.95 3.05 L68.10 3.05 L68.30 3.00 L68.35 3.00 L68.60 2.95 L68.65 2.95 L68.80 2.90 L68.95 2.85 L69.00 2.85 L69.15 2.80 L69.35 2.75 L69.40 2.70 L69.60 2.70 L69.85 2.70 L69.90 2.70 L70.05 2.65 L70.10 2.65 L70.25 2.60 L70.55 2.55 L70.55 2.50 L70.60 2.50 L70.70 2.45 L70.70 2.40 L71.05 2.40 L71.30 2.35 L71.35 2.35 L71.60 2.30 L71.65 2.30 L71.85 2.25 L72.05 2.25 L72.35 2.20 L72.60 2.15 L72.65 2.10 L72.75 2.10 L72.80 2.10 L72.95 2.10 L73.00 2.05 L73.05 2.00 L73.05 1.90 L73.10 1.90 L73.10 1.85 L73.55 1.85 L73.55 2.05 L81.20 2.00 L81.25 2.00 L81.45 2.00 L81.95 2.00 L81.95 2.30 L81.95 2.45 L81.95 2.65 L81.95 2.90 L81.95 3.20 L81.95 3.50 L81.95 3.75 L81.95 4.10 L81.95 4.35 L81.95 4.65 L81.95 4.95 L81.95 5.25 L81.95 5.55 L81.95 5.85 L81.95 6.10 L81.95 6.40 L81.95 6.70 L81.95 6.95 L81.95 7.30 L81.95 7.55 L81.95 7.90 L81.95 8.15 L81.95 8.45 L81.95 8.75 L81.95 9.05 L81.45 9.05 L81.45 9.00 L73.75 9.00 L73.70 9.00 L72.95 9.00 L72.65 8.95 L72.60 8.90 L72.35 8.85 L72.25 8.85 L72.00 8.80 L72.00 8.75 L71.85 8.70 L71.65 8.65 L71.60 8.60 L71.30 8.55 L71.20 8.50 L71.10 8.45 L70.90 8.40 L70.70 8.40 L70.55 8.35 L70.40 8.30 L70.25 8.25 L70.05 8.20 L69.85 8.15 L69.85 8.10 L69.70 8.05 L69.45 8.00 L69.25 7.95 L69.10 7.90 L68.85 7.90 L68.65 7.85 L68.35 7.80 L68.20 7.75 L68.00 7.70 L67.85 7.65 L67.70 7.60 L67.65 7.60 L67.45 7.55 L67.45 7.50 L67.35 7.50 L67.35 7.45 L67.25 7.45 L67.10 7.40 L66.95 7.35 L66.75 7.30 L66.55 7.25 L66.30 7.20 L62.60 7.20 L62.60 7.25 L62.40 7.25 L62.40 7.45 L62.40 7.75 L62.45 8.05 L62.45 8.35 L62.45 8.65 L62.45 8.90 L62.45 9.25 L62.45 9.50 L62.45 9.80 L62.45 10.10 L62.40 10.35 L62.40 10.70 L62.40 10.80 L82.20 10.80 L82.20 10.75 L82.20 10.65 L82.20 10.55 L82.20 10.50 L82.20 10.40 L82.20 10.35 L82.20 10.25 L82.20 10.15 L82.20 10.05 L82.20 10.00 L82.20 9.90 L82.20 9.80 L82.20 9.70 L82.15 9.65 L82.15 8.85 L82.40 8.85 L82.40 8.75 L85.85 8.75 L85.85 8.80 L86.25 8.80 L86.35 8.85 L86.40 8.85 L86.40 8.90 L86.45 8.95 L86.55 9.00 L86.55 9.05 L86.60 9.05 L86.65 9.10 L86.75 9.15 L86.75 9.20 L86.80 9.20 L86.85 9.25 L87.00 9.30 L87.00 8.80 L87.10 8.80 L87.10 8.75 L88.30 8.75 L88.35 8.75 L88.40 8.80 L88.40 8.85 L88.50 8.85 L88.50 9.05 L88.55 9.05 L88.55 9.10 L88.60 9.15 L88.65 9.20 L88.65 9.30 L88.70 9.30 L88.70 9.40 L88.75 9.40 L88.75 9.50 L88.80 9.55 L88.80 9.65 L88.85 9.65 L88.85 9.70 L88.90 9.75 L88.90 9.80 L88.95 9.80 L88.95 9.95 L89.00 10.00 L89.00 10.20 L89.05 10.25 L89.05 10.80 L93.10 10.80 L93.20 10.75 L93.35 10.80 L93.40 10.80 L102.25 10.80 L102.25 11.15 L102.90 11.20 L102.90 11.65 L102.35 11.65 L102.35 11.95 L102.40 12.00 L102.75 12.00 L102.75 12.15 L102.80 12.15 L102.80 12.65 L102.70 12.65 L102.70 12.75 L102.70 13.00 L102.70 13.15 L102.70 13.40 L102.70 13.60 L102.70 13.80 L102.70 14.05 L102.70 14.25 L102.70 14.50 L102.70 14.70 L102.70 14.95 L102.70 15.10 L102.70 15.35 L102.70 15.50 L114.95 15.50 L114.95 15.40 L114.95 15.20 L114.95 15.00 L115.05 15.00 L115.65 15.00 L115.65 15.25 L115.65 15.40 L115.80 15.40 L115.85 15.40 L116.65 15.40 L116.65 15.00 L116.95 15.00 L116.95 15.10 L117.00 15.20 L117.00 15.25 L117.15 15.40 L117.20 15.45 L117.30 15.45 L117.30 15.30 L117.30 15.05 L117.30 14.95 L117.55 14.95 L117.55 15.00 L117.75 15.00 L117.75 15.10 L117.80 15.15 L117.80 15.45 L124.25 15.45 L124.25 15.15 L124.80 15.15 L124.80 15.45 L130.10 15.45 L130.10 15.70 L130.10 15.80 L130.10 15.90 L130.10 15.95 L130.10 16.10 L130.10 16.20" fill="#ffffff" stroke="none" stroke-width="1" fill-rule="evenodd"/><path d="M84.95 10.80 L87.00 10.80 L87.00 10.50 L84.95 10.50 L84.95 10.80" fill="#ffffff" stroke="none" stroke-width="1" fill-rule="evenodd"/><path d="M58.85 4.45 L58.90 4.50 L58.90 4.45 L58.85 4.45" fill="#ffffff" stroke="none" stroke-width="1" fill-rule="evenodd"/><path d="M53.60 7.50 L52.45 7.50 L52.45 7.15 L49.90 7.15 L49.90 7.20 L49.80 7.20 L49.80 7.25 L49.80 7.55 L49.80 7.85 L49.80 8.15 L49.85 8.40 L49.85 8.70 L49.80 9.00 L49.80 9.30 L49.90 9.30 L58.90 9.35 L58.90 9.25 L58.90 8.90 L58.90 8.65 L58.90 8.35 L58.90 8.05 L58.90 7.75 L58.90 7.45 L58.90 7.20 L57.70 7.15 L57.55 7.15 L56.95 7.15 L56.95 7.50 L55.60 7.50 L55.60 7.90 L53.60 7.85 L53.60 7.50" fill="#ffffff" stroke="none" stroke-width="1" fill-rule="evenodd"/><path d="M44.70 22.65" fill="#ffffff" stroke="none" stroke-width="1" fill-rule="evenodd"/><path d="M44.70 22.65 L44.75 22.65 L44.75 22.60 L44.80 22.60 L45.20 22.60 L45.20 22.55 L45.60 22.55 L45.60 22.90 L45.55 22.95 L45.55 23.05 L45.55 23.15 L45.55 23.20 L45.55 23.30 L45.55 23.40 L45.55 23.50 L45.55 23.60 L45.55 23.70 L45.55 23.75 L45.55 23.85 L45.55 24.15 L45.55 24.25 L45.55 24.30 L45.55 24.40 L45.55 24.45 L45.60 24.45 L45.60 24.60 L45.65 24.65 L45.65 25.00 L45.70 25.00 L45.70 25.20 L45.75 25.25 L45.75 25.35 L45.80 25.40 L45.80 25.45 L45.85 25.45 L45.85 25.55 L45.90 25.60 L45.90 25.70 L46.00 25.80 L46.05 25.80 L46.05 25.85 L46.20 25.85 L46.20 25.90 L46.25 25.95 L46.40 25.95 L46.55 25.95 L46.70 25.95 L46.70 25.70 L46.65 25.65 L46.60 25.60 L46.60 25.55 L46.55 25.50 L46.55 25.40 L46.50 25.40 L46.50 25.10 L46.45 25.05 L46.45 24.75 L46.40 24.70 L46.35 24.65 L46.35 24.45 L46.45 24.40 L46.45 24.25 L46.50 24.20 L46.50 24.15 L46.55 24.10 L46.55 24.00 L46.60 23.95 L46.60 23.90 L46.70 23.80 L46.70 23.75 L46.75 23.70 L46.75 23.65 L46.80 23.60 L46.80 23.55 L46.90 23.50 L47.00 23.40 L47.05 23.40 L47.10 23.35 L47.20 23.20 L47.20 23.15 L47.25 23.15 L47.30 23.10 L47.30 23.05 L47.35 23.05 L47.40 23.00 L47.45 22.95 L47.55 22.90 L47.60 22.85 L47.70 22.80 L47.75 22.80 L47.80 22.75 L47.85 22.70 L47.90 22.65 L47.95 22.65 L48.00 22.60 L48.00 22.55 L48.05 22.55 L50.10 22.55 L50.15 22.55 L50.25 22.55 L50.30 22.55 L50.40 22.65 L50.40 22.75 L50.45 22.80 L50.45 22.90 L50.50 22.95 L50.55 22.95 L50.60 23.00 L50.65 23.05 L50.65 23.45 L50.70 23.50 L50.70 23.65 L50.70 23.75 L50.70 23.90 L50.70 23.95 L50.70 24.10 L50.70 24.20 L50.70 24.30 L50.70 24.45 L50.70 24.50 L50.70 24.65 L50.70 24.75 L50.70 24.90 L50.70 24.95 L50.70 25.05 L50.70 25.20 L50.70 25.30 L50.70 25.40 L50.65 25.40 L50.65 25.45 L50.55 25.50 L50.55 25.55 L50.45 25.65 L50.45 25.70 L50.40 25.70 L50.40 25.85 L50.35 25.85 L50.25 25.90 L50.25 26.00 L50.10 26.05 L49.90 26.10 L49.80 26.15 L45.60 26.15 L45.40 26.10 L45.30 26.05 L45.20 26.00 L45.10 25.95 L45.05 25.90 L45.05 25.85 L45.00 25.85 L44.90 25.80 L44.85 25.75 L44.80 25.70 L44.75 25.65 L44.70 25.60 L44.70 25.50 L44.60 25.40 L44.60 25.25 L44.55 25.20 L44.50 25.20 L44.50 25.10 L44.50 24.95 L44.50 24.85 L44.50 24.70 L44.50 24.50 L44.50 24.40 L44.50 24.25 L44.50 24.10 L44.50 23.95 L44.50 23.75 L44.50 23.60 L44.50 23.50 L44.50 23.35 L44.50 23.30 L44.55 23.25 L44.65 23.20 L44.65 22.85 L44.70 22.85 L44.70 22.65" fill="#ffffff" stroke="none" stroke-width="1" fill-rule="evenodd"/><path d="M29.60 12.95" fill="#ffffff" stroke="none" stroke-width="1" fill-rule="evenodd"/><path d="M29.60 12.95 L29.65 12.90 L29.65 12.85 L29.60 12.85 L29.60 12.95" fill="#ffffff" stroke="none" stroke-width="1" fill-rule="evenodd"/><path d="M4.55 20.15 L4.55 20.45 L4.55 20.70 L4.55 21.00 L4.55 21.30 L4.55 21.60 L4.55 21.90 L4.55 22.15 L4.55 22.50 L4.55 22.75 L4.55 23.05 L4.55 23.35 L4.55 23.65 L4.55 23.95 L4.55 24.10 L7.40 24.10 L7.40 24.00 L7.40 23.95 L7.40 23.85 L7.40 23.80 L7.70 23.80 L7.70 23.75 L7.65 23.75 L7.65 22.80 L7.70 22.75 L7.70 22.45 L7.70 22.15 L7.70 21.95 L7.70 21.85 L7.70 21.60 L7.70 21.25 L7.70 21.00 L7.70 20.70 L7.70 20.40 L7.70 20.15 L7.70 19.95 L6.45 19.95 L6.15 19.95 L4.55 19.95 L4.55 20.15" fill="#ffffff" stroke="none" stroke-width="1" fill-rule="evenodd"/><path d="M19.60 23.75 L19.70 23.75 L19.65 23.70 L19.60 23.75" fill="#ffffff" stroke="none" stroke-width="1" fill-rule="evenodd"/></g></svg>